<mxfile host="65bd71144e">
    <diagram id="SZKCk-5wsOM8MODdQxBF" name="Page-1">
        <mxGraphModel dx="904" dy="1014" grid="1" gridSize="10" guides="1" tooltips="1" connect="1" arrows="1" fold="1" page="1" pageScale="1" pageWidth="850" pageHeight="1100" math="0" shadow="0">
            <root>
                <mxCell id="0"/>
                <mxCell id="1" parent="0"/>
                <mxCell id="3" value="Process 0" style="rounded=0;whiteSpace=wrap;html=1;shadow=1;" vertex="1" parent="1">
                    <mxGeometry x="40" y="80" width="120" height="40" as="geometry"/>
                </mxCell>
                <mxCell id="4" value="&lt;span style=&quot;color: rgb(240 , 240 , 240) ; font-family: &amp;#34;helvetica&amp;#34; ; font-size: 12px ; font-style: normal ; font-weight: 400 ; letter-spacing: normal ; text-align: center ; text-indent: 0px ; text-transform: none ; word-spacing: 0px ; background-color: rgb(42 , 42 , 42) ; display: inline ; float: none&quot;&gt;Process 1&lt;/span&gt;" style="rounded=0;whiteSpace=wrap;html=1;shadow=1;" vertex="1" parent="1">
                    <mxGeometry x="40" y="120" width="120" height="80" as="geometry"/>
                </mxCell>
                <mxCell id="7" value="" style="rounded=0;whiteSpace=wrap;html=1;shadow=1;" vertex="1" parent="1">
                    <mxGeometry x="240" y="20" width="120" height="60" as="geometry"/>
                </mxCell>
                <mxCell id="12" value="" style="rounded=0;whiteSpace=wrap;html=1;shadow=1;" vertex="1" parent="1">
                    <mxGeometry x="440" y="20" width="120" height="60" as="geometry"/>
                </mxCell>
                <mxCell id="42" value="Process 4&lt;br&gt;executed&lt;br&gt;&lt;br&gt;allocate" style="edgeStyle=none;html=1;exitX=1;exitY=0.5;exitDx=0;exitDy=0;entryX=0;entryY=0.5;entryDx=0;entryDy=0;labelBackgroundColor=none;shadow=1;" edge="1" parent="1" source="16" target="37">
                    <mxGeometry y="10" relative="1" as="geometry">
                        <mxPoint as="offset"/>
                    </mxGeometry>
                </mxCell>
                <mxCell id="41" value="Process 3&lt;br&gt;executed&lt;br&gt;&lt;br&gt;allocate" style="edgeStyle=none;html=1;exitX=1;exitY=0.25;exitDx=0;exitDy=0;entryX=0;entryY=0.5;entryDx=0;entryDy=0;labelBackgroundColor=none;shadow=1;" edge="1" parent="1" source="18" target="14">
                    <mxGeometry y="10" relative="1" as="geometry">
                        <mxPoint as="offset"/>
                    </mxGeometry>
                </mxCell>
                <mxCell id="30" value="" style="rounded=0;whiteSpace=wrap;html=1;shadow=1;" vertex="1" parent="1">
                    <mxGeometry x="640" y="20" width="120" height="60" as="geometry"/>
                </mxCell>
                <mxCell id="40" value="Process 1 &lt;br&gt;terminated&lt;br&gt;&lt;br&gt;deallocate" style="edgeStyle=none;html=1;exitX=1;exitY=0.5;exitDx=0;exitDy=0;entryX=0;entryY=0.5;entryDx=0;entryDy=0;labelBackgroundColor=none;shadow=1;" edge="1" parent="1" source="39" target="18">
                    <mxGeometry y="10" relative="1" as="geometry">
                        <mxPoint as="offset"/>
                    </mxGeometry>
                </mxCell>
                <mxCell id="6" value="Hole" style="rounded=0;whiteSpace=wrap;html=1;fillColor=#60a917;strokeColor=#2D7600;fontColor=#ffffff;shadow=1;" vertex="1" parent="1">
                    <mxGeometry x="40" y="240" width="120" height="80" as="geometry"/>
                </mxCell>
                <mxCell id="11" value="Hole" style="rounded=0;whiteSpace=wrap;html=1;fillColor=#60a917;strokeColor=#2D7600;fontColor=#ffffff;shadow=1;" vertex="1" parent="1">
                    <mxGeometry x="240" y="240" width="120" height="80" as="geometry"/>
                </mxCell>
                <mxCell id="16" value="Hole" style="rounded=0;whiteSpace=wrap;html=1;fillColor=#60a917;strokeColor=#2D7600;fontColor=#ffffff;shadow=1;" vertex="1" parent="1">
                    <mxGeometry x="440" y="240" width="120" height="80" as="geometry"/>
                </mxCell>
                <mxCell id="37" value="&lt;span style=&quot;color: rgb(240, 240, 240); font-family: helvetica; font-size: 12px; font-style: normal; font-weight: 400; letter-spacing: normal; text-align: center; text-indent: 0px; text-transform: none; word-spacing: 0px; display: inline; float: none;&quot;&gt;Process 4&lt;br&gt;&lt;/span&gt;" style="rounded=0;whiteSpace=wrap;html=1;shadow=1;fillColor=#1ba1e2;strokeColor=#006EAF;fontColor=#ffffff;" vertex="1" parent="1">
                    <mxGeometry x="640" y="240" width="120" height="80" as="geometry"/>
                </mxCell>
                <mxCell id="5" value="&lt;span style=&quot;font-family: &amp;#34;helvetica&amp;#34;&quot;&gt;Process 2&lt;/span&gt;" style="rounded=0;whiteSpace=wrap;html=1;shadow=1;fillColor=#1ba1e2;strokeColor=#006EAF;fontColor=#ffffff;" vertex="1" parent="1">
                    <mxGeometry x="40" y="200" width="120" height="40" as="geometry"/>
                </mxCell>
                <mxCell id="10" value="&lt;span style=&quot;font-family: &amp;#34;helvetica&amp;#34;&quot;&gt;Process 2&lt;/span&gt;" style="rounded=0;whiteSpace=wrap;html=1;shadow=1;fillColor=#1ba1e2;strokeColor=#006EAF;fontColor=#ffffff;" vertex="1" parent="1">
                    <mxGeometry x="240" y="200" width="120" height="40" as="geometry"/>
                </mxCell>
                <mxCell id="15" value="&lt;span style=&quot;color: rgb(240, 240, 240); font-family: helvetica; font-size: 12px; font-style: normal; font-weight: 400; letter-spacing: normal; text-align: center; text-indent: 0px; text-transform: none; word-spacing: 0px; display: inline; float: none;&quot;&gt;Process 2&lt;/span&gt;" style="rounded=0;whiteSpace=wrap;html=1;shadow=1;fillColor=#1ba1e2;strokeColor=#006EAF;fontColor=#ffffff;" vertex="1" parent="1">
                    <mxGeometry x="440" y="200" width="120" height="40" as="geometry"/>
                </mxCell>
                <mxCell id="33" value="&lt;span style=&quot;color: rgb(240, 240, 240); font-family: helvetica; font-size: 12px; font-style: normal; font-weight: 400; letter-spacing: normal; text-align: center; text-indent: 0px; text-transform: none; word-spacing: 0px; display: inline; float: none;&quot;&gt;Process 2&lt;/span&gt;" style="rounded=0;whiteSpace=wrap;html=1;shadow=1;fillColor=#1ba1e2;strokeColor=#006EAF;fontColor=#ffffff;" vertex="1" parent="1">
                    <mxGeometry x="640" y="200" width="120" height="40" as="geometry"/>
                </mxCell>
                <mxCell id="18" value="Hole" style="rounded=0;whiteSpace=wrap;html=1;fillColor=#60a917;strokeColor=#2D7600;fontColor=#ffffff;shadow=1;" vertex="1" parent="1">
                    <mxGeometry x="240" y="120" width="120" height="80" as="geometry"/>
                </mxCell>
                <mxCell id="19" value="Hole" style="rounded=0;whiteSpace=wrap;html=1;fillColor=#60a917;strokeColor=#2D7600;fontColor=#ffffff;shadow=1;" vertex="1" parent="1">
                    <mxGeometry x="440" y="160" width="120" height="40" as="geometry"/>
                </mxCell>
                <mxCell id="35" value="Hole" style="rounded=0;whiteSpace=wrap;html=1;fillColor=#60a917;strokeColor=#2D7600;fontColor=#ffffff;shadow=1;" vertex="1" parent="1">
                    <mxGeometry x="640" y="160" width="120" height="40" as="geometry"/>
                </mxCell>
                <mxCell id="39" value="&lt;span style=&quot;color: rgb(240, 240, 240); font-family: helvetica; font-size: 12px; font-style: normal; font-weight: 400; letter-spacing: normal; text-align: center; text-indent: 0px; text-transform: none; word-spacing: 0px; display: inline; float: none;&quot;&gt;Process 1&lt;/span&gt;" style="rounded=0;whiteSpace=wrap;html=1;shadow=1;fillColor=#1ba1e2;strokeColor=#006EAF;fontColor=#ffffff;" vertex="1" parent="1">
                    <mxGeometry x="40" y="120" width="120" height="80" as="geometry"/>
                </mxCell>
                <mxCell id="14" value="&lt;span style=&quot;color: rgb(240, 240, 240); font-family: helvetica; font-size: 12px; font-style: normal; font-weight: 400; letter-spacing: normal; text-align: center; text-indent: 0px; text-transform: none; word-spacing: 0px; display: inline; float: none;&quot;&gt;Process 3&lt;/span&gt;" style="rounded=0;whiteSpace=wrap;html=1;shadow=1;fillColor=#1ba1e2;strokeColor=#006EAF;fontColor=#ffffff;" vertex="1" parent="1">
                    <mxGeometry x="440" y="120" width="120" height="40" as="geometry"/>
                </mxCell>
                <mxCell id="32" value="&lt;span style=&quot;color: rgb(240, 240, 240); font-family: helvetica; font-size: 12px; font-style: normal; font-weight: 400; letter-spacing: normal; text-align: center; text-indent: 0px; text-transform: none; word-spacing: 0px; display: inline; float: none;&quot;&gt;Process 3&lt;/span&gt;" style="rounded=0;whiteSpace=wrap;html=1;shadow=1;fillColor=#1ba1e2;strokeColor=#006EAF;fontColor=#ffffff;" vertex="1" parent="1">
                    <mxGeometry x="640" y="120" width="120" height="40" as="geometry"/>
                </mxCell>
                <mxCell id="8" value="&lt;span style=&quot;font-family: &amp;#34;helvetica&amp;#34;&quot;&gt;Process 0&lt;/span&gt;" style="rounded=0;whiteSpace=wrap;html=1;shadow=1;fillColor=#1ba1e2;strokeColor=#006EAF;fontColor=#ffffff;" vertex="1" parent="1">
                    <mxGeometry x="240" y="80" width="120" height="40" as="geometry"/>
                </mxCell>
                <mxCell id="13" value="&lt;span style=&quot;font-family: &amp;#34;helvetica&amp;#34;&quot;&gt;Process 0&lt;/span&gt;" style="rounded=0;whiteSpace=wrap;html=1;shadow=1;fillColor=#1ba1e2;strokeColor=#006EAF;fontColor=#ffffff;" vertex="1" parent="1">
                    <mxGeometry x="440" y="80" width="120" height="40" as="geometry"/>
                </mxCell>
                <mxCell id="31" value="&lt;span style=&quot;font-family: &amp;#34;helvetica&amp;#34;&quot;&gt;Process 0&lt;/span&gt;" style="rounded=0;whiteSpace=wrap;html=1;shadow=1;fillColor=#1ba1e2;strokeColor=#006EAF;fontColor=#ffffff;" vertex="1" parent="1">
                    <mxGeometry x="640" y="80" width="120" height="40" as="geometry"/>
                </mxCell>
                <mxCell id="38" value="Process 0" style="rounded=0;whiteSpace=wrap;html=1;shadow=1;fillColor=#1ba1e2;strokeColor=#006EAF;fontColor=#ffffff;" vertex="1" parent="1">
                    <mxGeometry x="40" y="80" width="120" height="40" as="geometry"/>
                </mxCell>
                <mxCell id="2" value="Kernel" style="rounded=0;whiteSpace=wrap;html=1;fillColor=#a20025;strokeColor=#6F0000;fontColor=#ffffff;shadow=1;" vertex="1" parent="1">
                    <mxGeometry x="40" y="20" width="120" height="60" as="geometry"/>
                </mxCell>
                <mxCell id="27" value="Kernel" style="rounded=0;whiteSpace=wrap;html=1;fillColor=#a20025;strokeColor=#6F0000;fontColor=#ffffff;shadow=1;" vertex="1" parent="1">
                    <mxGeometry x="440" y="20" width="120" height="60" as="geometry"/>
                </mxCell>
                <mxCell id="28" value="Kernel" style="rounded=0;whiteSpace=wrap;html=1;fillColor=#a20025;strokeColor=#6F0000;fontColor=#ffffff;shadow=1;" vertex="1" parent="1">
                    <mxGeometry x="240" y="20" width="120" height="60" as="geometry"/>
                </mxCell>
                <mxCell id="36" value="Kernel" style="rounded=0;whiteSpace=wrap;html=1;fillColor=#a20025;strokeColor=#6F0000;fontColor=#ffffff;shadow=1;" vertex="1" parent="1">
                    <mxGeometry x="640" y="20" width="120" height="60" as="geometry"/>
                </mxCell>
            </root>
        </mxGraphModel>
    </diagram>
</mxfile>